<?xml version="1.0" encoding="UTF-8" standalone="no"?>
<svg
   version="1.1"
   width="200"
   height="200"
   viewBox="3250 1980 1500 1500"
   xmlns="http://www.w3.org/2000/svg"
 >
  <path d="M3801 2927c0,-73 -59,-132 -132,-132 -73,0 -132,59 -132,132 0,73 59,132 132,132 73,0 132,-59 132,-132z" />
  <path d="M4107 2927c0,-73 -59,-132 -132,-132 -73,0 -132,59 -132,132 0,73 59,132 132,132 73,0 132,-59 132,-132z" />
  <path d="M4417 2927c0,-73 -59,-132 -132,-132 -73,0 -132,59 -132,132 0,73 59,132 132,132 73,0 132,-59 132,-132z" />
  <path d="M4417 2619c0,-73 -59,-132 -132,-132 -73,0 -132,59 -132,132 0,73 59,132 132,132 73,0 132,-59 132,-132z" />
  <path d="M4107 2309c0,-73 -59,-132 -132,-132 -73,0 -132,59 -132,132 0,73 59,132 132,132 73,0 132,-59 132,-132z" />
  <path d="M3977 1999c194,0 370,79 497,206 127,127 206,303 206,497 0,194 -79,370 -206,497 -127,127 -303,206 -497,206 -194,0 -370,-79 -497,-206 -127,-127 -206,-303 -206,-497 0,-194 79,-370 206,-497 127,-127 303,-206 497,-206zm441 261c-113,-113 -269,-183 -441,-183 -172,0 -328,70 -441,183 -113,113 -183,269 -183,441 0,172 70,328 183,441 113,113 269,183 441,183 172,0 329,-70 441,-183 113,-113 183,-269 183,-441 0,-172 -70,-329 -183,-441z"/>
</svg>

